<?xml version="1.0"?>
<svg xmlns="http://www.w3.org/2000/svg" height="512px" viewBox="0 -41 445.02021 445" width="512px" class=""><g><link xmlns="" type="text/css" id="dark-mode" rel="stylesheet"/><style xmlns="" type="text/css" id="dark-mode-custom-style"/><path d="m445.019531.0117188v268.8984372h-129.507812v-268.8984372zm0 0" fill="#00acea" data-original="#00ACEA" class="" data-old_color="#00acea" style="fill:#F30A0A"/><path d="m77.230469 195.582031v-.183593h-31.640625c-17.984375 0-32.566406-14.578126-32.566406-32.5625 0-17.984376 14.582031-32.566407 32.566406-32.566407h8.378906c-17.984375 0-32.5625-14.578125-32.5625-32.5625 0-17.988281 14.578125-32.566406 32.5625-32.566406h12.089844c-17.984375 0-32.5625-14.582031-32.5625-32.566406s14.578125-32.5625002 32.5625-32.5625002h152.429687c28.496094-.0039063 56.570313 6.8710932 81.84375 20.0390622l15.117188 7.878907h.0625v204.691406h-.0625l-15.128907 7.878906c-3.429687 1.789062-6.914062 3.460938-10.449218 5.011719-8.347656 3.679687-14.21875 11.390625-15.550782 20.417969l-2.070312 14.050781c-3.011719 20.351562-2.351562 52.550781 1.929688 72.667969l2.378906 11.222656h-30.539063c-21.964843 0-40.9375-15.363282-45.507812-36.851563-.675781-3.183593-1.015625-6.425781-1.023438-9.679687v-57.089844h-166.46875c-17.96875 0-32.988281-14.351562-33.019531-32.308594-.03125-8.609375 3.40625-16.867187 9.539062-22.910156 6.109376-6.089844 14.394532-9.492188 23.019532-9.449219zm0 0" fill="#f7caa5" data-original="#F7CAA5" class=""/><path d="m371.269531 166.390625c15.546875-.003906 28.148438 12.597656 28.152344 28.144531 0 15.542969-12.601563 28.144532-28.148437 28.144532-15.546876 0-28.144532-12.605469-28.144532-28.148438.007813-15.539062 12.601563-28.136719 28.140625-28.140625zm0 0" fill="#00efd1" data-original="#00EFD1" class="active-path" style="fill:#FFFFFF" data-old_color="#00efd1"/></g> </svg>
