<?xml version="1.0"?>
<svg xmlns="http://www.w3.org/2000/svg" height="512px" viewBox="0 -40 461.513 461" width="512px" class=""><g><link xmlns="" type="text/css" id="dark-mode" rel="stylesheet" class="active-path"/><style xmlns="" type="text/css" id="dark-mode-custom-style" class="active-path"/><path d="m453.027344.257812h-129.515625c-4.429688.035157-8.003907 3.640626-8 8.070313v14.757813l-3.488281-1.855469c-26.421876-13.738281-55.753907-20.929688-85.53125-20.972657h-152.429688c-16.316406.003907-31.042969 9.78125-37.378906 24.816407-6.335938 15.039062-3.050782 32.40625 8.34375 44.089843-12.261719 5.625-20.917969 16.984376-23.09375 30.300782-2.175782 13.3125 2.417968 26.835937 12.253906 36.074218-11.105469 6.039063-18.753906 16.914063-20.683594 29.40625-1.925781 12.492188 2.082032 25.167969 10.847656 34.277344-14.714843 6.378906-24.2695308 20.851563-24.351562 36.886719.0390625 22.222656 18.441406 40.148437 41.019531 40.148437h158.492188v49.398438c-.015625 14.472656 5.71875 28.359375 15.941406 38.597656 10.226563 10.242188 24.101563 16 38.574219 16.003906h30.539062c2.417969-.019531 4.703125-1.121093 6.21875-3.003906 1.515625-1.882812 2.105469-4.351562 1.605469-6.714844l-2.386719-11.230468c-3.957031-18.589844-4.78125-49.917969-1.84375-69.835938l2.078125-14.050781c.910157-6.3125 5.015625-11.707031 10.859375-14.265625 3.6875-1.621094 7.359375-3.386719 10.917969-5.242188l3.5-1.820312v23.132812c.003906 4.421876 3.578125 8.011719 7.996094 8.03125h129.515625c4.417968 0 8.484375-3.613281 8.484375-8.035156v-268.894531c0-4.417969-4.066407-8.070313-8.484375-8.070313zm-148.402344 241.460938c-3.25 1.699219-6.605469 3.308594-9.96875 4.789062-10.890625 4.757813-18.546875 14.8125-20.242188 26.574219l-2.074218 14.050781c-3.226563 21.851563-2.339844 55.050782 2.019531 75.53125l.332031 1.59375h-20.664062c-10.226563-.003906-20.035156-4.074218-27.261719-11.316406-7.222656-7.238281-11.273437-17.054687-11.253906-27.285156v-57.085938c.019531-4.484374-3.535157-8.167968-8.015625-8.3125h-166.476563c-13.773437 0-25-10.761718-25.019531-24.175781-.039062-6.410156 2.566406-12.550781 7.199219-16.980469 4.636719-4.519531 10.894531-6.984374 17.367187-6.84375h44.769532c4.453124-.085937 8.011718-3.726562 8-8.179687 0-1.492187-.363282-2.960937-1.054688-4.28125-1.359375-2.675781-4.054688-4.414063-7.050781-4.539063h-31.636719c-13.53125 0-24.5-10.96875-24.5-24.5s10.96875-24.5 24.5-24.5h40.941406c4.417969 0 8-3.582031 8-8 0-4.417968-3.582031-8-8-8h-32.566406c-13.53125 0-24.5-10.96875-24.5-24.5s10.96875-24.5 24.5-24.5h41.871094c4.417968 0 8-3.582031 8-8 0-4.417968-3.582032-8-8-8h-29.777344c-13.53125 0-24.5-10.96875-24.5-24.5s10.96875-24.5 24.5-24.5h152.429688c27.203124.039063 54.003906 6.613282 78.140624 19.164063l10.878907 5.703125v194.929688zm140.886719 27.539062h-114v-253h114zm0 0" data-original="#000000" class="active-path" fill="#818181"/><path d="m379.273438 238.992188c19.960937 0 36.144531-16.179688 36.144531-36.144532 0-19.960937-16.183594-36.140625-36.144531-36.140625-19.960938 0-36.144532 16.179688-36.144532 36.140625.023438 19.953125 16.191406 36.125 36.144532 36.144532zm0-56.285157c11.125 0 20.144531 9.015625 20.144531 20.140625 0 11.128906-9.019531 20.144532-20.144531 20.144532s-20.144532-9.015626-20.144532-20.144532c.015625-11.117187 9.023438-20.128906 20.144532-20.140625zm0 0" data-original="#000000" class="active-path" fill="#818181"/></g> </svg>
